<svg t="1596757394846" class="icon" viewBox="0 0 1024 1024" version="1.1" xmlns="http://www.w3.org/2000/svg" p-id="22529" width="200" height="200"><path d="M853.333333 128h-177.066666c-19.2 0-36.266667-12.8-40.533334-32-14.933333-55.466667-64-96-123.733333-96s-108.8 40.533333-123.733333 96c-4.266667 19.2-21.333333 32-40.533334 32H170.666667C134.4 128 106.666667 155.733333 106.666667 192v768c0 36.266667 27.733333 64 64 64h682.666666c36.266667 0 64-27.733333 64-64V192c0-36.266667-27.733333-64-64-64zM469.333333 128h85.333334c12.8 0 21.333333 8.533333 21.333333 21.333333s-8.533333 21.333333-21.333333 21.333334h-85.333334c-12.8 0-21.333333-8.533333-21.333333-21.333334s8.533333-21.333333 21.333333-21.333333z m128 661.333333H256c-12.8 0-21.333333-8.533333-21.333333-21.333333s8.533333-21.333333 21.333333-21.333333h341.333333c12.8 0 21.333333 8.533333 21.333334 21.333333s-8.533333 21.333333-21.333334 21.333333z m85.333334-192H256c-12.8 0-21.333333-8.533333-21.333333-21.333333s8.533333-21.333333 21.333333-21.333333h426.666667c12.8 0 21.333333 8.533333 21.333333 21.333333s-8.533333 21.333333-21.333333 21.333333z m85.333333-192H256c-12.8 0-21.333333-8.533333-21.333333-21.333333s8.533333-21.333333 21.333333-21.333333h512c12.8 0 21.333333 8.533333 21.333333 21.333333s-8.533333 21.333333-21.333333 21.333333z" fill="#F5F7FD" p-id="22530"></path></svg>